# xmcd
#
# Track frame offsets: 
#        150
#        20842
#        33222
#        50082
#        66495
#        83195
#        94640
#        116080
#        134987
#        153177
#        166842
#        178192
#        202757
#        215582
#
# Disc length: 3162 seconds
#
# Revision: 1
# Processed by: cddbd v1.5.2PL0 Copyright (c) Steve Scherf et al.
# Submitted via: ExactAudioCopyFreeDBPlugin 1.0
#
DISCID=c90c580e
DTITLE=Pogues - the best of
DYEAR=1991
DGENRE=Folk
TTITLE0=Fairytale Of New York
TTITLE1=Sally Maclennane
TTITLE2=Dirty Old Town
TTITLE3=The Irish Rover
TTITLE4=A Pair Of Brown Eyes
TTITLE5=Streams Of Whiskey
TTITLE6=A Rainy Night In Soho
TTITLE7=Fiesta
TTITLE8=Rain Street
TTITLE9=Misty Morning, Albert Bridge
TTITLE10=White City
TTITLE11=Thousands Are Sailing
TTITLE12=The Broad Majestic Shannon
TTITLE13=The Body Of An American
EXTD=
EXTT0=
EXTT1=
EXTT2=
EXTT3=
EXTT4=
EXTT5=
EXTT6=
EXTT7=
EXTT8=
EXTT9=
EXTT10=
EXTT11=
EXTT12=
EXTT13=
PLAYORDER=
